<?xml version="1.0" encoding="UTF-8"?>
<svg id="Layer_1" data-name="Layer 1" xmlns="http://www.w3.org/2000/svg" viewBox="0 0 2482.48 2212.11">
  <defs>
    <style>
      .cls-1 {
        stroke-width: 25.69px;
      }

      .cls-1, .cls-2 {
        fill: none;
      }

      .cls-1, .cls-2, .cls-3 {
        stroke: #9e1f63;
        stroke-miterlimit: 10;
      }

      .cls-2 {
        stroke-width: 21.41px;
      }

      .cls-4 {
        fill: #9e1f63;
        font-family: NexaBlack, NexaBlack;
        font-size: 276.56px;
      }

      .cls-3 {
        fill: #fff;
        stroke-width: 8.56px;
      }
    </style>
  </defs>
  <text class="cls-4" transform="translate(521.45 1489.02)"><tspan x="0" y="0">INDEPTH</tspan><tspan x="-279.05" y="279.68">COMPUTERS</tspan></text>
  <g>
    <path class="cls-1" d="m1227.75,616.59c-55.7-4.76-120.02,22.45-150.04,78.32-14.91,27.75-14.25,71.85-12.33,158.94,1.92,87.17,2.89,130.75,16.44,152.03,47.99,75.31,200.83,84.91,261.03,4.61,30.27-40.38,27.72-91.42,22.61-193.49-3.38-67.51-6.2-112.03-37-149.73-36.96-45.23-88.91-49.67-100.71-50.68Z"/>
    <path class="cls-2" d="m1064.37,770.93c32.47,10.24,81.14,21.46,140.77,20.3,69.34-1.35,124.12-18.88,157.86-32.66"/>
    <rect class="cls-3" x="1192.81" y="669.97" width="45.13" height="79.66" rx="3.85" ry="3.85"/>
    <rect class="cls-3" x="1192.81" y="394.04" width="23.68" height="219.92" rx="2.02" ry="2.02"/>
    <circle class="cls-1" cx="1213.68" cy="873.55" r="318.45"/>
  </g>
</svg>